<?xml version="1.0" standalone="no"?>
<!DOCTYPE svg PUBLIC "-//W3C//DTD SVG 20010904//EN"
 "http://www.w3.org/TR/2001/REC-SVG-20010904/DTD/svg10.dtd">
<svg version="1.0" xmlns="http://www.w3.org/2000/svg"
 width="1280.000000pt" height="1280.000000pt" viewBox="0 0 1280.000000 1280.000000"
 preserveAspectRatio="xMidYMid meet">

<g transform="translate(0.000000,1280.000000) scale(0.100000,-0.100000)"
fill="#000000" stroke="none">
<path d="M4550 6995 c-114 -26 -178 -92 -207 -214 -7 -31 -13 -82 -13 -113 l0
-58 -65 0 -65 0 0 -90 0 -90 65 0 65 0 0 -265 0 -265 26 -6 c26 -7 191 3 206
12 4 3 8 122 8 265 l0 259 74 0 73 0 7 80 c4 44 5 84 1 90 -3 5 -40 10 -82 10
l-75 0 4 74 c5 100 27 126 105 126 34 0 55 5 58 13 2 6 6 46 10 88 4 60 3 78
-8 82 -37 14 -128 15 -187 2z"/>
<path d="M10107 6972 c-16 -3 -17 -35 -15 -540 l3 -537 30 -3 c17 -2 67 -1
113 3 l82 7 0 533 c0 417 -3 534 -12 538 -15 5 -175 5 -201 -1z"/>
<path d="M7392 6433 l3 -538 60 -3 c33 -2 83 -1 112 3 l51 6 4 212 c3 179 7
218 22 248 35 68 119 91 172 46 36 -31 43 -79 43 -319 l1 -198 48 0 c26 0 77
3 115 7 l67 6 0 251 c0 140 -5 267 -10 288 -18 63 -70 130 -124 157 -39 20
-64 25 -120 25 -81 0 -120 -16 -179 -73 -22 -20 -38 -29 -37 -21 1 8 2 111 1
228 l-1 212 -115 0 -115 0 2 -537z"/>
<path d="M2823 6913 c9 -2 23 -2 30 0 6 3 -1 5 -18 5 -16 0 -22 -2 -12 -5z"/>
<path d="M3005 6910 c3 -5 8 -10 11 -10 2 0 4 5 4 10 0 6 -5 10 -11 10 -5 0
-7 -4 -4 -10z"/>
<path d="M6088 6913 c12 -2 30 -2 40 0 9 3 -1 5 -23 4 -22 0 -30 -2 -17 -4z"/>
<path d="M6296 6911 c9 -9 83 -27 74 -18 -3 3 -23 10 -44 16 -22 5 -35 6 -30
2z"/>
<path d="M6024 6895 c-10 -8 -14 -14 -9 -14 6 0 19 6 29 14 11 8 15 15 10 15
-6 0 -19 -7 -30 -15z"/>
<path d="M3070 6890 c20 -13 33 -13 25 0 -3 6 -14 10 -23 10 -15 0 -15 -2 -2
-10z"/>
<path d="M3000 6860 c0 -16 2 -30 4 -30 2 0 6 14 8 30 3 17 1 30 -4 30 -4 0
-8 -13 -8 -30z"/>
<path d="M6136 6877 c3 -10 9 -15 12 -12 3 3 0 11 -7 18 -10 9 -11 8 -5 -6z"/>
<path d="M6280 6875 c0 -8 2 -15 4 -15 2 0 6 7 10 15 3 8 1 15 -4 15 -6 0 -10
-7 -10 -15z"/>
<path d="M2852 6860 c0 -14 2 -19 5 -12 2 6 2 18 0 25 -3 6 -5 1 -5 -13z"/>
<path d="M5950 6863 c-37 -24 -90 -75 -90 -86 0 -6 9 0 19 12 11 13 25 20 30
16 7 -3 8 0 5 9 -4 9 5 20 25 30 16 9 33 20 36 26 9 14 3 13 -25 -7z"/>
<path d="M6410 6871 c0 -9 51 -34 57 -27 2 2 -10 11 -26 19 -17 9 -31 12 -31
8z"/>
<path d="M2665 6860 c-3 -5 -1 -10 4 -10 6 0 11 5 11 10 0 6 -2 10 -4 10 -3 0
-8 -4 -11 -10z"/>
<path d="M3150 6856 c0 -2 7 -6 15 -10 8 -3 15 -1 15 4 0 6 -7 10 -15 10 -8 0
-15 -2 -15 -4z"/>
<path d="M2629 6833 c-13 -16 -12 -17 4 -4 16 13 21 21 13 21 -2 0 -10 -8 -17
-17z"/>
<path d="M3195 6830 c3 -5 8 -10 11 -10 2 0 4 5 4 10 0 6 -5 10 -11 10 -5 0
-7 -4 -4 -10z"/>
<path d="M6480 6832 c0 -6 4 -14 10 -17 6 -4 3 -17 -7 -33 l-17 -27 22 22 c26
26 27 36 7 53 -9 8 -15 9 -15 2z"/>
<path d="M7351 6814 c0 -11 3 -14 6 -6 3 7 2 16 -1 19 -3 4 -6 -2 -5 -13z"/>
<path d="M3220 6811 c0 -7 -5 -9 -12 -5 -7 4 -10 4 -6 -1 4 -4 3 -15 -4 -24
-7 -9 -1 -6 12 6 13 12 21 26 17 29 -4 4 -7 2 -7 -5z"/>
<path d="M2590 6789 c-7 -11 -10 -23 -7 -25 2 -2 9 7 15 21 14 30 7 33 -8 4z"/>
<path d="M2851 6784 c0 -11 3 -14 6 -6 3 7 2 16 -1 19 -3 4 -6 -2 -5 -13z"/>
<path d="M3022 6780 c0 -14 2 -19 5 -12 2 6 2 18 0 25 -3 6 -5 1 -5 -13z"/>
<path d="M6406 6784 c-4 -9 -4 -19 -1 -22 2 -3 7 3 11 12 4 9 4 19 1 22 -2 3
-7 -3 -11 -12z"/>
<path d="M4950 6700 l0 -90 -55 0 -55 0 -1 -65 c-1 -36 -1 -72 -1 -80 0 -8 0
-19 1 -25 0 -5 26 -10 56 -10 l55 0 0 -176 c0 -96 5 -195 11 -218 13 -51 58
-110 102 -132 37 -20 175 -29 232 -17 l40 9 0 79 0 80 -59 5 c-92 8 -96 18
-96 211 l0 159 80 0 80 0 0 90 0 90 -80 0 -80 0 0 90 0 90 -115 0 -115 0 0
-90z"/>
<path d="M6440 6780 c-8 -5 -12 -11 -10 -14 3 -2 14 2 24 10 22 15 10 19 -14
4z"/>
<path d="M4627 6762 c-9 -10 -17 -26 -17 -36 0 -14 8 -17 48 -14 45 3 47 4 47
33 0 26 -4 30 -31 33 -20 2 -36 -3 -47 -16z"/>
<path d="M6125 6760 c3 -5 8 -10 11 -10 2 0 4 5 4 10 0 6 -5 10 -11 10 -5 0
-7 -4 -4 -10z"/>
<path d="M6085 6750 c3 -5 8 -10 11 -10 2 0 4 5 4 10 0 6 -5 10 -11 10 -5 0
-7 -4 -4 -10z"/>
<path d="M6450 6750 c0 -16 -71 -90 -81 -84 -5 3 -7 10 -4 15 4 5 -2 6 -11 2
-13 -5 -16 -2 -11 9 4 12 1 14 -13 11 -10 -3 -27 4 -39 16 l-21 21 -6 -41 -7
-41 -45 6 c-25 3 -51 6 -58 6 -9 0 -14 12 -14 35 0 33 -2 35 -20 25 -15 -8
-20 -21 -20 -55 l0 -45 39 0 c50 0 115 -23 159 -56 l34 -27 74 74 c75 75 86
92 59 103 -8 3 -12 12 -9 21 3 8 3 15 0 15 -3 0 -6 -4 -6 -10z"/>
<path d="M2550 6730 c0 -5 5 -10 11 -10 5 0 7 5 4 10 -3 6 -8 10 -11 10 -2 0
-4 -4 -4 -10z"/>
<path d="M2838 6732 c-14 -3 -18 -14 -18 -52 l0 -48 58 -4 c61 -5 115 -26 151
-59 12 -11 26 -19 30 -17 5 2 41 37 80 79 70 75 70 77 51 94 -20 18 -21 18
-36 -1 -8 -10 -13 -13 -9 -6 3 6 1 12 -4 12 -6 0 -11 -8 -11 -18 0 -22 -37
-59 -47 -48 -4 4 -1 12 7 17 11 8 10 9 -7 4 -14 -4 -23 -2 -23 4 0 6 -7 11
-15 11 -8 0 -15 5 -15 11 0 5 -4 7 -10 4 -5 -3 -10 -2 -10 4 0 6 -7 8 -15 5
-9 -4 -15 -19 -15 -36 0 -31 0 -31 -46 -24 -26 3 -53 6 -60 6 -7 0 -14 14 -16
33 -2 25 -7 32 -20 29z"/>
<path d="M5830 6730 c0 -5 16 -8 36 -8 19 0 34 2 31 4 -8 8 -67 11 -67 4z"/>
<path d="M2588 6723 c7 -3 16 -2 19 1 4 3 -2 6 -13 5 -11 0 -14 -3 -6 -6z"/>
<path d="M6367 6709 c7 -7 15 -10 18 -7 3 3 -2 9 -12 12 -14 6 -15 5 -6 -5z"/>
<path d="M3635 6616 c-225 -54 -339 -284 -255 -509 59 -158 251 -260 431 -229
97 17 154 46 226 117 53 54 64 71 83 134 56 184 -12 366 -167 448 -97 51 -211
65 -318 39z m197 -204 c67 -44 95 -128 73 -216 -22 -85 -93 -133 -180 -123
-145 16 -197 219 -83 322 35 32 43 35 101 35 42 0 70 -6 89 -18z"/>
<path d="M3665 6369 c-19 -17 -35 -35 -35 -39 0 -4 30 -5 68 -3 79 5 119 -14
155 -75 l22 -37 3 34 c12 119 -126 196 -213 120z"/>
<path d="M6915 6616 c-115 -29 -197 -96 -248 -203 -27 -58 -30 -76 -30 -162
-1 -84 3 -104 27 -156 30 -67 102 -147 157 -175 44 -23 157 -50 209 -50 58 0
139 19 191 45 77 39 77 43 8 128 l-62 76 -31 -22 c-43 -31 -151 -32 -193 -1
-40 29 -73 99 -73 154 0 54 33 125 71 153 54 39 135 39 190 -2 l28 -21 66 76
c75 86 74 89 -4 129 -88 44 -206 56 -306 31z"/>
<path d="M8526 6619 c-166 -39 -276 -173 -284 -345 -10 -207 112 -357 322
-395 182 -34 374 67 437 229 17 43 22 79 23 147 0 80 -3 97 -31 156 -50 107
-138 179 -252 205 -63 15 -157 16 -215 3z m215 -224 c62 -58 77 -151 38 -232
-67 -138 -260 -119 -304 30 -17 57 -12 102 17 160 29 59 70 79 150 75 58 -3
71 -8 99 -33z"/>
<path d="M8568 6384 c-23 -12 -48 -42 -48 -57 0 -2 25 -2 55 1 32 3 68 -1 85
-8 35 -15 90 -73 91 -98 0 -12 3 -11 10 6 11 30 -3 97 -28 124 -43 47 -113 61
-165 32z"/>
<path d="M9424 6616 c-64 -16 -133 -55 -180 -104 -166 -171 -115 -483 97 -592
48 -25 148 -50 199 -50 51 0 151 25 201 50 52 27 125 103 157 164 24 47 27 61
27 166 0 107 -2 119 -29 172 -82 162 -275 242 -472 194z m207 -209 c90 -60
101 -200 23 -287 -59 -65 -154 -67 -224 -4 -86 78 -74 235 22 294 47 29 134
27 179 -3z"/>
<path d="M9473 6380 c-17 -10 -36 -28 -42 -38 -10 -18 -7 -19 57 -15 59 4 71
2 102 -19 19 -13 45 -41 57 -63 l23 -40 0 43 c0 119 -104 189 -197 132z"/>
<path d="M2490 6524 c0 -86 15 -135 57 -184 45 -52 95 -81 222 -124 58 -20
119 -45 136 -56 l32 -20 7 40 c6 37 9 40 39 41 17 1 25 3 16 6 -8 2 -26 20
-38 41 -13 20 -20 29 -17 19 5 -15 3 -16 -15 -7 -17 10 -21 7 -30 -19 -13 -36
-19 -37 -83 -15 -48 17 -49 18 -29 69 2 6 -26 23 -62 39 -36 15 -65 32 -65 37
0 5 -6 9 -13 9 -22 0 -81 71 -100 118 -10 24 -13 41 -7 37 15 -9 12 4 -4 21
-8 8 -22 14 -30 14 -13 0 -16 -13 -16 -66z"/>
<path d="M5766 6574 c-10 -27 -7 -99 8 -147 30 -100 100 -153 286 -217 52 -18
109 -43 127 -56 l32 -24 7 45 c6 40 9 45 33 45 l26 1 -27 24 c-16 13 -28 28
-28 33 0 5 -8 16 -17 23 -17 13 -17 13 -3 -5 14 -18 13 -19 -2 -14 -11 5 -20
-2 -28 -23 -14 -34 -19 -35 -83 -12 -36 13 -46 21 -41 33 4 8 8 24 9 36 1 11
5 26 9 33 7 10 4 11 -10 3 -24 -13 -113 23 -165 67 -47 39 -82 109 -74 148 5
21 4 24 -4 13 -7 -10 -11 -11 -11 -2 0 18 -37 15 -44 -4z"/>
<path d="M2755 6570 c28 -12 37 -12 30 0 -3 6 -16 10 -28 9 -21 0 -21 -1 -2
-9z"/>
<path d="M6041 6576 c2 -2 15 -9 29 -15 24 -11 24 -11 6 3 -16 13 -49 24 -35
12z"/>
<path d="M2814 6535 c11 -8 26 -15 33 -15 22 0 14 8 -19 19 -30 10 -31 9 -14
-4z"/>
<path d="M6105 6530 c27 -12 43 -12 25 0 -8 5 -22 9 -30 9 -10 0 -8 -3 5 -9z"/>
<path d="M2982 6460 c0 -14 2 -19 5 -12 2 6 2 18 0 25 -3 6 -5 1 -5 -13z"/>
<path d="M3000 6471 c0 -9 30 -24 36 -18 2 1 -6 8 -16 15 -11 7 -20 8 -20 3z"/>
<path d="M6260 6464 c0 -8 5 -12 10 -9 6 3 10 10 10 16 0 5 -4 9 -10 9 -5 0
-10 -7 -10 -16z"/>
<path d="M2610 6445 c22 -24 30 -29 30 -22 0 8 -38 47 -45 47 -5 0 2 -11 15
-25z"/>
<path d="M2810 6450 c0 -5 5 -10 10 -10 6 0 10 5 10 10 0 6 -4 10 -10 10 -5 0
-10 -4 -10 -10z"/>
<path d="M3064 6446 c11 -9 24 -16 30 -16 12 0 7 5 -24 19 -24 11 -24 11 -6
-3z"/>
<path d="M5900 6450 c-9 -6 -10 -10 -3 -10 6 0 15 5 18 10 8 12 4 12 -15 0z"/>
<path d="M6096 6445 c4 -8 8 -15 10 -15 2 0 4 7 4 15 0 8 -4 15 -10 15 -5 0
-7 -7 -4 -15z"/>
<path d="M6344 6446 c11 -9 24 -16 30 -16 12 0 7 5 -24 19 -24 11 -24 11 -6
-3z"/>
<path d="M6241 6413 c-10 -26 -10 -27 4 -9 8 11 15 23 15 28 0 15 -7 8 -19
-19z"/>
<path d="M6327 6429 c7 -7 15 -10 18 -7 3 3 -2 9 -12 12 -14 6 -15 5 -6 -5z"/>
<path d="M3103 6423 c-7 -3 -13 -9 -13 -14 0 -4 7 -6 16 -2 12 4 26 -5 45 -28
16 -19 29 -29 29 -23 0 16 -64 72 -77 67z"/>
<path d="M6390 6426 c0 -2 8 -10 18 -17 15 -13 16 -12 3 4 -13 16 -21 21 -21
13z"/>
<path d="M4800 6376 l0 -46 56 0 55 0 -3 33 c-3 30 -6 32 -43 35 -22 2 -45 8
-52 14 -10 8 -13 0 -13 -36z"/>
<path d="M4170 6368 l0 -38 60 0 c33 0 61 5 61 10 6 55 7 55 -59 60 l-62 5 0
-37z"/>
<path d="M6080 6400 c-9 -6 -10 -10 -3 -10 6 0 15 5 18 10 8 12 4 12 -15 0z"/>
<path d="M2795 6390 c3 -5 8 -10 11 -10 2 0 4 5 4 10 0 6 -5 10 -11 10 -5 0
-7 -4 -4 -10z"/>
<path d="M4607 6393 c-4 -3 -7 -19 -7 -35 0 -27 2 -28 45 -28 45 0 45 0 45 35
0 34 -1 35 -38 35 -21 0 -42 -3 -45 -7z"/>
<path d="M5220 6365 c0 -35 0 -35 45 -35 45 0 45 0 45 35 0 35 0 35 -45 35
-45 0 -45 0 -45 -35z"/>
<path d="M6984 6386 c-29 -13 -64 -50 -64 -69 0 -4 10 -3 21 4 32 17 115 6
150 -20 33 -25 43 -21 79 29 l19 27 -23 -4 c-15 -3 -35 3 -53 16 -37 28 -90
35 -129 17z"/>
<path d="M7724 6390 c-20 -8 -54 -46 -54 -60 0 -3 15 -5 33 -3 43 5 78 -15
100 -57 l18 -35 -3 63 c-3 37 -10 68 -19 76 -20 20 -51 26 -75 16z"/>
<path d="M6446 6365 c9 -14 20 -25 25 -25 5 0 -1 11 -13 25 -12 14 -23 25 -25
25 -2 0 4 -11 13 -25z"/>
<path d="M2778 6373 c10 -4 10 -8 1 -19 -7 -8 -7 -14 -1 -14 12 0 23 26 15 34
-4 3 -11 6 -17 5 -6 0 -5 -3 2 -6z"/>
<path d="M3198 6313 c5 -21 7 -23 10 -9 2 10 0 22 -6 28 -6 6 -7 0 -4 -19z"/>
<path d="M3221 6264 c0 -11 3 -14 6 -6 3 7 2 16 -1 19 -3 4 -6 -2 -5 -13z"/>
<path d="M6250 6276 c0 -2 7 -7 16 -10 8 -3 12 -2 9 4 -6 10 -25 14 -25 6z"/>
<path d="M6501 6234 c0 -11 3 -14 6 -6 3 7 2 16 -1 19 -3 4 -6 -2 -5 -13z"/>
<path d="M3218 6215 c-3 -14 -1 -25 3 -25 5 0 9 11 9 25 0 14 -2 25 -4 25 -2
0 -6 -11 -8 -25z"/>
<path d="M3073 6213 c9 -2 23 -2 30 0 6 3 -1 5 -18 5 -16 0 -22 -2 -12 -5z"/>
<path d="M3128 6213 c7 -3 16 -2 19 1 4 3 -2 6 -13 5 -11 0 -14 -3 -6 -6z"/>
<path d="M6343 6213 c9 -2 23 -2 30 0 6 3 -1 5 -18 5 -16 0 -22 -2 -12 -5z"/>
<path d="M6408 6213 c6 -2 18 -2 25 0 6 3 1 5 -13 5 -14 0 -19 -2 -12 -5z"/>
<path d="M6469 6199 c-10 -6 -7 -9 14 -9 29 0 35 5 14 13 -8 3 -20 1 -28 -4z"/>
<path d="M8201 6140 c-1 -71 21 -142 64 -207 40 -60 79 -92 160 -130 54 -25
70 -28 170 -28 103 1 114 3 175 32 63 31 105 63 145 113 l20 24 -25 -17 c-14
-10 -54 -31 -89 -48 -75 -36 -202 -49 -288 -31 -157 34 -277 145 -317 294
l-15 53 0 -55z"/>
<path d="M9114 6114 c6 -135 76 -238 204 -301 74 -37 79 -38 181 -37 135 0
196 22 282 101 63 59 73 83 17 40 -75 -58 -123 -71 -258 -71 -119 0 -128 1
-190 30 -36 17 -86 49 -111 72 -48 43 -102 133 -119 198 -8 34 -9 31 -6 -32z"/>
<path d="M2626 6162 c-3 -5 1 -9 9 -9 8 0 12 4 9 9 -3 4 -7 8 -9 8 -2 0 -6 -4
-9 -8z"/>
<path d="M3324 6104 c8 -175 157 -317 348 -331 133 -10 241 27 331 115 46 45
69 86 25 44 -13 -11 -54 -36 -93 -54 -67 -32 -75 -33 -191 -33 -119 0 -121 0
-196 38 -112 55 -188 147 -219 262 -6 21 -7 8 -5 -41z"/>
<path d="M5904 6159 c-4 -8 -3 -9 4 -5 7 4 12 3 12 -2 0 -5 15 -20 33 -32 27
-19 33 -28 31 -54 l-3 -31 8 30 c6 24 4 33 -13 48 -12 10 -31 27 -43 38 -15
14 -24 16 -29 8z"/>
<path d="M6596 6115 c17 -152 87 -249 224 -313 49 -23 68 -26 170 -26 109 -1
118 1 183 31 61 29 89 55 74 69 -3 4 -27 -2 -54 -12 -75 -30 -267 -26 -348 5
-88 35 -194 143 -220 226 -27 83 -37 90 -29 20z"/>
<path d="M2593 6125 c-15 -16 -16 -25 -5 -25 4 0 13 9 20 20 14 23 3 26 -15 5z"/>
<path d="M2670 6121 c0 -5 7 -12 16 -15 14 -5 15 -4 4 9 -14 17 -20 19 -20 6z"/>
<path d="M2549 6083 c-13 -16 -12 -17 4 -4 9 7 17 15 17 17 0 8 -8 3 -21 -13z"/>
<path d="M2958 6083 c7 -3 16 -2 19 1 4 3 -2 6 -13 5 -11 0 -14 -3 -6 -6z"/>
<path d="M5822 6078 c-7 -7 -12 -16 -12 -20 0 -15 15 -8 28 12 13 22 3 27 -16
8z"/>
<path d="M5932 6070 c0 -14 2 -19 5 -12 2 6 2 18 0 25 -3 6 -5 1 -5 -13z"/>
<path d="M2925 6070 c-3 -5 1 -10 10 -10 9 0 13 5 10 10 -3 6 -8 10 -10 10 -2
0 -7 -4 -10 -10z"/>
<path d="M3048 6068 c6 -6 18 -8 28 -6 14 3 12 5 -9 10 -19 3 -25 2 -19 -4z"/>
<path d="M2700 6069 c0 -2 -4 -19 -9 -36 -6 -21 -6 -35 0 -39 5 -3 9 -2 8 3
-1 4 1 21 6 36 4 15 5 31 1 34 -3 4 -6 4 -6 2z"/>
<path d="M6155 6060 l-30 -8 30 0 c17 0 39 3 50 8 l20 9 -20 -1 c-11 0 -33 -4
-50 -8z"/>
<path d="M2509 6043 c-13 -16 -12 -17 3 -5 21 17 42 6 33 -17 -5 -12 -4 -13 6
-4 10 10 9 15 -1 28 -16 19 -24 19 -41 -2z"/>
<path d="M2846 6045 c-3 -8 -1 -15 4 -15 6 0 10 7 10 15 0 8 -2 15 -4 15 -2 0
-6 -7 -10 -15z"/>
<path d="M3125 6049 c-11 -16 -1 -19 13 -3 7 8 8 14 3 14 -5 0 -13 -5 -16 -11z"/>
<path d="M3160 6049 c0 -5 5 -7 10 -4 6 3 10 8 10 11 0 2 -4 4 -10 4 -5 0 -10
-5 -10 -11z"/>
<path d="M4914 6003 c14 -157 85 -222 242 -223 122 0 144 6 144 41 l0 29 -102
0 c-151 0 -213 37 -264 156 l-25 59 5 -62z"/>
<path d="M6368 6053 c6 -2 18 -2 25 0 6 3 1 5 -13 5 -14 0 -19 -2 -12 -5z"/>
<path d="M6421 6056 c2 -2 18 -6 34 -10 22 -5 26 -4 15 4 -14 9 -59 15 -49 6z"/>
<path d="M3167 6010 c-8 -11 -17 -17 -21 -12 -4 4 -6 1 -4 -7 4 -17 -60 -63
-75 -54 -5 3 -7 1 -4 -4 10 -16 -69 -44 -101 -37 -21 4 -23 3 -12 -5 11 -8 -3
-10 -52 -10 -56 1 -68 4 -68 17 -1 26 -39 -59 -40 -87 0 -15 -5 -21 -14 -18
-7 3 -35 9 -61 12 l-47 8 6 39 c7 40 -4 59 -34 66 -31 7 -80 35 -75 42 3 5 1
11 -5 15 -6 4 -7 11 -4 17 4 7 2 8 -4 4 -6 -4 -26 0 -44 9 -29 14 -31 14 -14
0 19 -15 19 -16 -19 -55 l-40 -41 30 -25 c45 -37 160 -92 224 -105 32 -6 100
-9 159 -7 96 4 108 8 180 44 85 43 129 91 155 168 16 48 8 61 -16 26z m-617
-42 c0 -6 -6 -5 -15 2 -8 7 -15 14 -15 16 0 2 7 1 15 -2 8 -4 15 -11 15 -16z"/>
<path d="M5783 6017 c0 -7 9 -14 20 -14 11 -1 18 -1 16 0 -2 2 -11 8 -20 15
-12 9 -16 9 -16 -1z"/>
<path d="M6447 6009 c-4 -13 -10 -18 -18 -13 -7 4 -10 3 -6 -3 10 -16 -27 -44
-49 -37 -14 4 -15 3 -6 -4 17 -12 -31 -45 -69 -46 -15 -1 -25 -5 -22 -10 3 -4
-10 -5 -28 -1 -25 4 -30 3 -19 -4 11 -8 -3 -11 -52 -11 -39 0 -68 4 -68 10 0
6 4 10 9 10 5 0 11 7 15 15 4 12 2 13 -12 4 -20 -13 -37 -47 -47 -96 -6 -30
-9 -32 -38 -26 -82 16 -82 16 -81 64 1 24 5 52 9 62 4 10 5 21 1 24 -3 4 -6
-1 -6 -11 0 -10 -5 -14 -12 -10 -7 5 -8 3 -3 -6 12 -19 -39 -5 -92 27 -42 25
-58 41 -27 29 8 -3 13 -2 10 3 -13 20 -56 7 -91 -29 l-36 -37 42 -37 c23 -20
79 -50 123 -68 77 -31 88 -33 211 -32 111 0 138 3 186 22 94 38 179 127 193
205 5 32 -9 37 -17 6z"/>
<path d="M2848 6013 c6 -2 18 -2 25 0 6 3 1 5 -13 5 -14 0 -19 -2 -12 -5z"/>
<path d="M3075 6001 c-6 -11 13 -26 22 -17 4 3 1 6 -6 6 -7 0 -9 5 -6 10 3 6
4 10 1 10 -3 0 -7 -4 -11 -9z"/>
<path d="M6126 5997 c3 -10 9 -15 12 -12 3 3 0 11 -7 18 -10 9 -11 8 -5 -6z"/>
<path d="M2831 5984 c0 -11 3 -14 6 -6 3 7 2 16 -1 19 -3 4 -6 -2 -5 -13z"/>
<path d="M2851 5984 c0 -11 3 -14 6 -6 3 7 2 16 -1 19 -3 4 -6 -2 -5 -13z"/>
<path d="M2681 5964 c0 -11 3 -14 6 -6 3 7 2 16 -1 19 -3 4 -6 -2 -5 -13z"/>
<path d="M2600 5946 c0 -2 7 -7 16 -10 8 -3 12 -2 9 4 -6 10 -25 14 -25 6z"/>
<path d="M6330 5935 c-11 -13 -10 -14 4 -9 9 3 16 10 16 15 0 13 -6 11 -20 -6z"/>
<path d="M2888 5903 c6 -2 18 -2 25 0 6 3 1 5 -13 5 -14 0 -19 -2 -12 -5z"/>
<path d="M7350 5843 l0 -53 120 0 120 0 0 35 0 35 -110 0 c-93 0 -110 3 -119
18 -8 13 -10 5 -11 -35z"/>
<path d="M10050 5843 l0 -53 120 0 120 0 0 35 0 35 -110 0 c-93 0 -110 3 -119
18 -8 13 -10 5 -11 -35z"/>
<path d="M4300 5837 l0 -47 113 0 c63 0 116 2 119 5 2 3 3 18 0 35 l-4 30
-102 0 c-66 0 -106 4 -114 12 -9 9 -12 2 -12 -35z"/>
<path d="M7820 5836 l0 -47 118 3 117 3 0 30 0 30 -104 3 c-58 1 -111 8 -118
14 -10 8 -13 1 -13 -36z"/>
</g>
</svg>
